<!DOCTYPE svg PUBLIC "-//W3C//DTD SVG 1.1//EN" "http://www.w3.org/Graphics/SVG/1.1/DTD/svg11.dtd">
<!-- Uploaded to: SVG Repo, www.svgrepo.com, Transformed by: SVG Repo Mixer Tools -->
<svg width="800px" height="800px" viewBox="0 -2 24 24" id="meteor-icon-kit__regular-desktop" fill="none" xmlns="http://www.w3.org/2000/svg">
<g id="SVGRepo_bgCarrier" stroke-width="0"/>
<g id="SVGRepo_tracerCarrier" stroke-linecap="round" stroke-linejoin="round"/>
<g id="SVGRepo_iconCarrier">
<path fill-rule="evenodd" clip-rule="evenodd" d="M3 2C2.44772 2 2 2.44772 2 3V14C2 14.5523 2.44772 15 3 15H21C21.5523 15 22 14.5523 22 14V3C22 2.44772 21.5523 2 21 2H3zM3 0H21C22.6569 0 24 1.34315 24 3V14C24 15.6569 22.6569 17 21 17H3C1.34315 17 0 15.6569 0 14V3C0 1.34315 1.34315 0 3 0zM16 18C16.5523 18 17 18.4477 17 19C17 19.5523 16.5523 20 16 20H8C7.44772 20 7 19.5523 7 19C7 18.4477 7.44772 18 8 18H16z" fill="#2d549d"/>
</g>
</svg>